<?xml version="1.0" encoding="utf-8"?>
<!-- Generator: Adobe Illustrator 24.1.3, SVG Export Plug-In . SVG Version: 6.00 Build 0)  -->
<svg version="1.1" xmlns="http://www.w3.org/2000/svg" xmlns:xlink="http://www.w3.org/1999/xlink" x="0px" y="0px"
	 viewBox="0 0 1280 614.04" style="enable-background:new 0 0 1280 614.04;" xml:space="preserve">
<style type="text/css">
	.st0{fill:none;stroke:#747678;stroke-width:0.8;stroke-miterlimit:10;}
	.st1{fill:#CCA943;}
	.st2{fill:none;stroke:#CCA943;stroke-width:0.337;stroke-miterlimit:10;}
	.st3{fill:#D8B69B;}
	.st4{fill:#747678;}
	.st5{fill:none;stroke:#CCA943;stroke-width:0.1618;stroke-miterlimit:10;}
</style>
<g id="Ligne">
	<line class="st0" x1="1280" y1="366.64" x2="0" y2="366.64"/>
</g>
<g id="Droite">
	<line class="st0" x1="843.44" y1="190.15" x2="843.44" y2="543.14"/>
</g>
<g id="Cercle">
	<path class="st0" d="M639.98,482.64c-325.54,0-589.44-52.82-589.44-117.91c0-65.16,263.91-117.92,589.44-117.92
		c320.46,0,589.48,51.76,589.48,117.92C1229.46,429.82,965.55,482.64,639.98,482.64z"/>
</g>
<g id="Archi">
</g>
<g id="S">
	<g>
		<g id="XMLID_3_">
			<g>
				<path class="st1" d="M1078.51,394.3c7.21,6.77,9.79,13.24,10.07,23.24c-0.16-4.14-1.53-8.56-4.34-13.14
					c-13.64-22.27-80.55-40.28-82.32-79.45c-1.59-34.75,61.4-42.53,96.51-34.37c-18.77-4.08-84.97-5.18-84.73,34.16
					c0.08,12.37,17.32,31.35,26.65,40.29C1050.85,375.04,1070.6,386.87,1078.51,394.3z"/>
			</g>
			<g>
				<path class="st2" d="M1088.58,417.64c0.4,11.28-8,20.51-19.83,25.55c-17.4,7.41-66.08,13.77-84.38,17.69"/>
				<path class="st2" d="M1098.43,290.58c-35.1-8.16-98.1-0.38-96.51,34.37c1.77,39.17,68.68,57.18,82.32,79.45
					c2.81,4.59,4.17,9,4.34,13.14"/>
				<path class="st2" d="M1099.84,290.92c-0.46-0.12-0.93-0.23-1.41-0.33c-18.77-4.08-84.97-5.18-84.73,34.16
					c0.08,12.37,17.32,31.35,26.65,40.29c10.49,10.01,30.25,21.83,38.15,29.27c7.21,6.77,9.79,13.24,10.07,23.24
					c0,0.03,0,0.07,0,0.1"/>
			</g>
		</g>
	</g>
</g>
<g id="E_1_">
	<path class="st3" d="M888.38,298.99h81.88v13.97h-67.54v44.75h66.93v13.98h-66.93v56.07h66.93v14h-81.27V298.99z"/>
</g>
<g id="T">
	<path class="st3" d="M804.3,312.97v-13.99h78.27v13.99h-31.85v128.8H836.2v-128.8H804.3z"/>
</g>
<g id="N">
	<path class="st4" d="M686.23,441.76V298.99h3.15l95.04,109.44V298.99h14.08v142.76h-3.21l-94.28-108.07v108.07H686.23z"/>
</g>
<g id="A">
	<path class="st4" d="M613.76,298.99l66.65,142.77h-15.44l-22.45-46.97H581l-22.22,46.97h-15.93l67.46-142.77H613.76z
		 M612.01,329.33l-24.44,51.68h48.82L612.01,329.33z"/>
</g>
<g id="C">
	<path class="st4" d="M537.01,325.49l-11.22,8.63c-6.22-8.1-13.68-14.23-22.35-18.4c-8.77-4.21-18.28-6.26-28.7-6.26
		c-11.38,0-21.99,2.71-31.67,8.19c-9.72,5.5-17.28,12.86-22.55,22.06c-5.36,9.19-8.02,19.61-8.02,31.11
		c0,17.4,5.96,31.91,17.89,43.57c11.97,11.65,27,17.46,45.25,17.46c19.99,0,36.66-7.78,50.15-23.46l11.22,8.51
		c-7.06,9.06-15.94,16.08-26.61,21.05c-10.63,4.95-22.54,7.41-35.66,7.41c-25,0-44.69-8.31-59.13-24.98
		c-12.17-14.03-18.18-30.95-18.18-50.84c0-20.92,7.31-38.48,21.99-52.78c14.68-14.29,33.02-21.37,55.11-21.37
		c13.33,0,25.41,2.6,36.13,7.89C521.37,308.58,530.14,315.94,537.01,325.49z"/>
</g>
<g id="E">
	<path class="st3" d="M309.75,298.98h81.88v13.97h-67.57v44.74h66.93v13.99h-66.93v56.08h66.93v14.01h-81.24V298.98z"/>
</g>
<g id="S_1_">
	<g>
		<g id="XMLID_7_">
			<g>
				<path class="st1" d="M278.79,364.41c-1.35-28.82-18.67-56.09-36.14-78.97c-30.52-40.24-62.23-85.62-48.21-136.62
					c8.95-32.63,33.12-56.55,61.82-72.53c-39.83,27.41-54.62,68.95-52.87,100.2C207.45,249.33,277.96,280.91,278.79,364.41z"/>
			</g>
			<g>
				<path class="st5" d="M298.86,58.82c-14.44,4.11-29.03,9.9-42.59,17.47c-28.7,15.99-52.87,39.9-61.82,72.53
					c-14.02,51,17.69,96.38,48.21,136.62c17.47,22.88,34.79,50.15,36.14,78.97c0.64,13.6-2.28,27.54-10.42,41.54
					c-24.47,41.98-66.85,39.16-88.05,32.48"/>
				<path class="st5" d="M313.29,52.41c-22.97,5-41.83,13.41-57.03,23.88c-39.83,27.41-54.62,68.95-52.87,100.2
					c4.06,72.84,74.58,104.41,75.4,187.92c0.01,0.49,0.01,0.98,0.01,1.47"/>
			</g>
		</g>
	</g>
</g>
</svg>
